<svg width="233" height="500" viewBox="0 0 233 500" fill="none" xmlns="http://www.w3.org/2000/svg">
<path d="M228.585 493.876C225.265 492.076 221.353 489.777 211.631 488.177C203.688 486.977 198.946 476.479 198.946 476.479H180.451C180.451 476.479 178.791 493.876 179.621 495.276C180.451 496.675 180.925 498.175 185.193 499.275C189.461 500.375 226.925 499.975 228.585 499.675C230.244 499.375 234.868 497.275 228.585 493.876Z" fill="#EFEFEF"/>
<path d="M13.5247 326.602C11.035 329.702 0.127882 359.897 0.00932572 361.397C-0.10923 362.897 0.839216 367.196 6.5299 363.196C9.61235 360.997 13.4061 358.597 18.0298 351.198C21.8236 345.199 35.1019 344.499 35.1019 344.499L40.7925 329.702C40.7925 329.702 21.5865 323.103 19.6896 323.303C17.7927 323.503 16.0144 323.503 13.5247 326.602Z" fill="#EFEFEF"/>
<path d="M135.282 271.811C134.808 271.911 134.215 274.811 134.096 275.21C131.369 282.609 105.643 348.599 105.643 351.398C105.643 354.198 50.5144 333.201 41.6227 329.902C40.9113 329.602 40.2 329.902 39.8443 330.402C38.066 333.601 32.9681 343.1 34.7464 344.2C36.999 345.499 94.9728 380.394 99.715 381.394C104.457 382.394 111.571 387.393 123.426 375.395C133.622 365.096 162.075 326.102 170.019 315.204C170.374 314.704 171.204 314.504 171.797 314.804C172.153 315.004 172.39 315.304 172.508 315.704C173.931 326.202 174.524 366.896 178.673 377.794C182.823 388.693 176.895 400.391 176.895 416.388L180.333 475.279C180.333 475.879 180.926 476.379 181.637 476.379L197.642 476.679C198.353 476.679 198.946 476.279 199.065 475.679C200.132 466.18 210.683 394.992 211.75 383.893C212.936 371.895 219.812 271.211 217.915 265.112C216.493 261.313 144.055 270.611 135.282 271.811Z" fill="url(#paint0_linear_20_272)"/>
<path d="M141.209 94.539C141.209 94.539 145.24 80.9411 148.441 80.9411C151.642 80.9411 171.085 82.9408 173.456 92.5393C175.828 102.138 184.719 107.537 184.719 119.135C184.719 130.733 190.41 136.132 190.41 136.132C190.41 136.132 196.812 119.035 201.554 111.636C206.296 104.237 214.714 99.5382 214.714 94.539C214.714 89.5397 207.601 32.7487 207.008 31.2489C206.415 29.7492 204.637 20.7506 208.786 15.6514C208.786 15.6514 221.59 6.7528 223.25 3.15337C224.554 0.153842 228.703 -1.54589 231.075 1.95356C233.446 5.45301 223.606 14.9515 221.946 18.7509C220.523 22.3503 219.456 26.0498 218.982 29.8492C218.982 30.849 216.611 45.9466 216.611 53.4454C216.611 60.9443 221.946 84.6405 221.946 92.1393C221.946 99.6381 202.266 129.733 200.487 135.333C198.709 140.932 141.446 193.623 140.261 195.123C139.075 196.623 133.147 208.221 133.147 212.22C133.147 216.22 133.147 229.318 135.519 226.818C137.89 224.318 147.73 204.322 149.508 201.822C151.287 199.322 165.395 196.923 172.034 195.423C178.673 193.923 188.394 196.923 187.209 200.422C186.023 203.922 166.699 210.521 160.534 211.82C156.622 212.62 139.668 228.418 138.482 232.917C137.297 237.416 121.766 230.917 121.766 224.418C121.766 217.919 123.544 184.725 125.916 180.225C128.287 175.726 139.075 156.129 145.003 146.031C150.931 135.932 137.89 130.933 135.519 123.934C133.147 116.935 141.209 94.539 141.209 94.539Z" fill="#FAF3DD"/>
<path d="M192.426 126.634C192.426 126.634 207.957 103.138 209.498 97.2387C211.039 91.3396 207.127 31.0491 207.127 31.0491L219.101 29.5494C219.101 29.5494 230.601 85.4406 232.142 91.9395C233.683 98.4385 228.111 112.436 222.776 120.335C217.441 128.234 202.74 161.329 202.74 165.228C202.74 169.127 203.689 206.221 206.06 213.42C208.431 220.619 218.034 265.312 218.034 265.312L135.045 271.911C135.045 271.911 138.72 252.414 138.483 245.915C137.89 231.617 133.266 221.019 145.596 214.32C153.895 209.921 161.72 212.021 170.611 208.321C180.926 204.022 183.297 200.522 183.89 198.123C184.245 196.723 181.637 193.523 165.632 198.523C160.297 200.222 149.508 200.122 149.271 205.922C149.153 210.821 156.622 221.419 147.612 226.218C147.612 226.218 137.297 246.715 127.694 249.915C119.395 252.614 109.555 245.215 109.792 235.517C110.029 223.919 110.859 201.722 117.143 192.024C123.426 182.325 140.617 157.429 143.699 155.429C146.782 153.43 156.148 162.928 167.055 161.629C177.962 160.329 182.467 156.029 184.838 151.53C187.209 147.031 192.426 126.634 192.426 126.634Z" fill="url(#paint1_linear_20_272)"/>
<path d="M157.807 83.9407C162.668 90.5396 168.951 96.2387 176.301 100.938C188.868 109.137 176.42 131.933 175.827 143.331C175.353 152.43 181.755 165.028 197.286 173.527C208.43 179.726 200.605 193.723 200.605 200.722C200.605 207.721 218.626 190.824 219.337 182.825C220.167 172.927 217.203 165.928 208.904 157.929C201.198 150.43 192.188 122.335 189.698 109.037C189.461 107.637 189.343 106.337 189.461 104.937C189.698 100.238 188.987 85.3404 173.1 76.9418C154.132 66.9433 142.276 76.1419 134.57 81.641C125.204 88.34 121.41 107.037 123.781 136.032C126.152 165.028 120.225 181.525 116.194 189.924C106.946 209.021 132.08 195.623 136.704 184.625C142.632 170.527 146.781 169.427 155.199 158.429C158.518 154.13 154.132 139.532 150.456 133.433C143.461 121.635 139.431 116.735 139.431 108.737C139.431 100.738 150.693 86.9402 157.807 83.9407Z" fill="url(#paint2_linear_20_272)"/>
<path opacity="0.07" d="M161.482 135.733C161.482 135.733 174.879 136.433 178.554 129.234C178.91 128.434 176.42 151.23 175.709 148.231C174.761 145.131 161.482 135.733 161.482 135.733Z" fill="black"/>
<path opacity="0.07" d="M137.89 188.424C137.89 188.424 134.807 204.622 133.148 212.021C132.199 216.02 131.606 220.019 131.488 224.119C131.488 224.119 142.869 212.121 146.544 207.321C148.797 204.322 141.921 205.822 141.328 194.823C140.735 183.825 140.854 176.726 140.854 176.726L137.89 188.424Z" fill="black"/>
<path opacity="0.07" d="M138.838 240.516C138.838 240.516 149.034 232.118 149.508 227.718C150.101 221.919 154.962 222.219 154.962 225.819C154.962 229.418 147.374 256.314 151.998 263.413C156.621 270.512 160.297 270.412 160.297 270.412L135.4 271.911L138.838 240.516Z" fill="black"/>
<path opacity="0.07" d="M160.178 270.311C160.178 270.311 161.601 291.708 152.591 298.807C134.215 313.305 145.003 332.301 136.823 340.6C129.947 347.499 128.168 367.396 111.689 371.795C105.168 373.595 81.6944 361.497 76.9521 360.097C66.8749 357.198 59.7615 340.9 28.3442 332.501C20.9938 330.502 47.6688 332.601 47.6688 332.601L105.524 352.798L135.4 271.911L160.178 270.311Z" fill="black"/>
<defs>
<linearGradient id="paint0_linear_20_272" x1="93.0757" y1="370.695" x2="218.036" y2="370.339" gradientUnits="userSpaceOnUse">
<stop stop-color="#51C8C0"/>
<stop offset="1" stop-color="#5DA5E8"/>
</linearGradient>
<linearGradient id="paint1_linear_20_272" x1="121.927" y1="201.392" x2="273.209" y2="76.5413" gradientUnits="userSpaceOnUse">
<stop stop-color="#79D8AB"/>
<stop offset="1" stop-color="#E0CFAE"/>
</linearGradient>
<linearGradient id="paint2_linear_20_272" x1="114.167" y1="137.436" x2="219.471" y2="137.436" gradientUnits="userSpaceOnUse">
<stop stop-color="#3E1CA6"/>
<stop offset="1" stop-color="#569EBD"/>
</linearGradient>
</defs>
</svg>
