<svg width="249" height="350" viewBox="0 0 249 350" fill="none" xmlns="http://www.w3.org/2000/svg">
<path d="M177.682 329.105C173.014 321.181 169.296 319.079 157.745 318.755C146.195 318.432 130.847 318.594 130.847 318.594L130.688 335.332C130.688 335.332 143.426 342.852 150.23 346.572C150.625 346.814 151.733 347.461 152.524 347.946C153.711 348.512 154.976 348.997 156.242 349.321C162.967 350.776 169.059 350.049 173.41 345.601C178.236 340.669 182.35 337.03 177.682 329.105ZM90.5777 314.227C90.1821 314.55 89.1536 315.359 88.4416 315.925C87.4922 316.815 86.622 317.866 85.8308 318.917C82.0333 324.739 80.372 330.804 82.8245 336.626C85.5144 343.014 87.334 348.35 96.1947 346.814C105.056 345.278 108.457 342.528 113.046 331.774C117.635 321.019 123.252 306.303 123.173 306.303L108.062 299.915C108.062 299.915 96.5112 309.214 90.5777 314.227Z" fill="#EFEFEF"/>
<path d="M131.875 319.321C131.875 319.321 132.112 336.221 129.422 336.626C126.733 337.03 89.6281 331.531 74.8338 330.723C60.0395 329.914 26.4952 320.13 10.0395 301.127C-4.20101 284.713 -1.98582 266.519 8.53633 266.519C19.0585 266.519 28.7104 257.381 55.4509 270.4C82.1914 283.419 110.514 285.602 126.416 284.308C142.318 283.015 186.859 274.605 190.34 272.017C193.821 269.43 210.514 261.991 233.774 264.578C257.033 267.166 246.036 286.006 241.131 293.284C234.248 303.392 217.951 314.227 204.343 314.712C190.736 315.197 131.875 319.321 131.875 319.321Z" fill="url(#paint0_linear_20_226)"/>
<path d="M104.344 23.7733C96.5117 26.6843 86.5434 66.3064 86.5434 66.3064L86.3852 66.1447L85.2776 71.6432L83.9326 78.8399L86.5434 121.858L111.86 134.796L170.009 150.807L186.069 174.175C186.069 174.175 222.066 211.614 222.303 214.202C222.54 216.789 183.616 229.97 179.898 230.536C170.958 231.91 237.097 215.334 215.895 189.054C206.876 177.814 193.664 144.014 167.477 121.616C152.287 108.678 156.559 71.8858 151.179 48.5978C144.455 19.4877 140.341 10.7546 133.616 10.7546C127.524 10.7546 119.059 18.1939 104.344 23.7733Z" fill="#FAF3DD"/>
<path d="M186.622 117.815C174.438 106.413 170.324 103.664 159.644 107.545C148.964 111.427 143.742 114.985 129.185 117.411C120.245 119.028 110.989 117.815 102.682 114.095L72.6979 117.168C68.9004 116.683 26.258 198.514 25.2295 215.495C24.5966 225.926 47.777 242.018 54.2643 243.635C56.8751 244.282 61.5428 218.568 63.046 216.223L53.3149 213.15C55.0555 208.703 60.9099 197.706 64.7865 191.803C65.9732 189.943 75.2295 174.337 76.4953 168.353C76.7327 168.919 78.0776 180.24 79.3434 183.879C81.7168 190.59 84.9605 194.391 84.9605 199.727C84.9605 205.064 84.3276 226.25 80.5301 235.792C76.7327 245.333 71.1947 267.408 71.1947 267.408L167.081 266.842C167.081 266.842 163.6 224.714 165.024 210.239C165.024 210.239 163.521 204.417 166.369 196.008C171.036 182.1 172.381 161.399 171.59 158.165C170.404 153.07 199.755 196.17 206.163 207.086C208.853 211.614 172.381 219.619 169.375 223.096C166.21 226.735 172.46 236.6 172.46 236.6C172.46 236.6 236.068 228.676 235.752 218.73C235.435 208.784 200.783 130.995 186.622 117.815Z" fill="url(#paint1_linear_20_226)"/>
<path d="M112.017 0.485168C112.017 0.485168 94.2166 1.21292 89.0742 20.2962C83.9318 39.3795 83.2197 65.9828 83.0615 70.1068C82.9033 74.4733 84.8811 100.025 75.3084 110.699C67.0805 119.917 70.4033 128.812 68.3463 136.17L67.397 148.381C67.5552 149.836 68.5837 151.049 69.9286 151.534C71.1944 151.938 75.6248 149.836 76.416 149.513C87.4919 144.984 87.4919 141.346 91.6849 137.707C95.166 134.715 104.739 127.761 107.587 125.012C110.435 122.262 112.413 119.836 112.571 116.359C113.125 98.6508 110.118 82.3168 106.321 73.6647C102.524 65.0125 95.2451 50.3766 101.337 40.6732C107.429 30.9699 118.425 21.2665 119.058 18.8407C119.691 16.4149 120.008 28.2206 126.732 32.3445C133.457 36.4685 139.074 42.2096 141.131 47.789C142.872 52.479 145.166 60.4843 138.837 74.3116C132.508 88.1389 127.365 105.928 136.305 119.109C145.245 132.289 164.074 146.521 167.16 153.151C170.641 160.51 167.318 177.814 166.685 188.245C166.052 198.676 186.622 170.132 185.989 156.548C185.356 142.963 187.571 137.141 174.834 116.279C162.096 95.4164 153.789 59.6757 153.473 51.0235C153.156 42.3713 149.359 18.3555 141.685 11.4823C135.039 5.66029 133.615 0 120.008 0C117.318 0 114.628 0.161723 112.017 0.485168Z" fill="url(#paint2_linear_20_226)"/>
<path opacity="0.07" d="M71.4321 289.645L161.306 290.131C161.306 290.131 150.783 298.54 145.72 299.51C140.657 300.481 118.98 311.478 110.91 307.273C105.214 304.12 71.4321 289.645 71.4321 289.645ZM121.511 83.3681C121.511 83.3681 129.897 85.5513 133.378 80.5379C141.211 69.2173 134.09 86.2791 134.09 86.2791C134.09 86.2791 131.796 92.9097 131.954 96.225C132.113 99.5403 122.935 83.8532 121.511 83.3681ZM87.9669 141.588C86.9385 142.882 85.4353 143.933 84.6441 147.249C83.2992 152.585 81.8752 158.569 78.2359 164.068C76.0999 167.302 77.2866 179.836 80.8467 187.76C81.8752 190.024 85.0397 195.927 84.9606 197.302L84.7233 208.784H94.3752C94.3752 208.784 102.603 209.673 100.863 202.719C99.3593 196.574 91.5271 173.69 96.8277 168.677C106.796 159.378 94.2169 140.78 98.8847 134.796C102.919 129.621 108.695 125.901 108.695 124.203C108.695 123.556 107.192 125.659 106.163 126.386C104.185 127.842 103.157 128.974 101.495 130.106C99.6758 131.319 96.9068 133.34 95.0872 134.715C92.4764 136.737 90.103 139.001 87.9669 141.588Z" fill="black"/>
<path d="M50.3873 215.253C50.3873 215.253 50.3082 209.269 56.0835 209.027C61.8588 208.784 184.169 208.946 184.169 208.946C184.169 208.946 189.549 209.593 189.707 214.04C189.865 218.487 189.865 284.551 189.865 284.551C189.865 284.551 189.944 289.645 184.644 289.807C179.343 289.969 54.6594 289.969 54.6594 289.969C54.6594 289.969 49.9917 288.756 50.0708 283.985C50.1499 279.214 50.3873 215.253 50.3873 215.253Z" fill="white"/>
<path d="M120.482 254.875C123.409 254.875 125.782 252.449 125.782 249.457C125.782 246.465 123.409 244.039 120.482 244.039C117.554 244.039 115.181 246.465 115.181 249.457C115.181 252.449 117.554 254.875 120.482 254.875Z" fill="url(#paint3_linear_20_226)"/>
<defs>
<linearGradient id="paint0_linear_20_226" x1="248.057" y1="300.025" x2="-5.91414e-05" y2="300.025" gradientUnits="userSpaceOnUse">
<stop stop-color="#51C8C0"/>
<stop offset="1" stop-color="#5CA6E6"/>
</linearGradient>
<linearGradient id="paint1_linear_20_226" x1="25.2169" y1="186.649" x2="235.752" y2="186.649" gradientUnits="userSpaceOnUse">
<stop stop-color="#79D8AB"/>
<stop offset="1" stop-color="#D6CFAD"/>
</linearGradient>
<linearGradient id="paint2_linear_20_226" x1="67.397" y1="95.2449" x2="186.003" y2="95.2449" gradientUnits="userSpaceOnUse">
<stop stop-color="#3E1FA6"/>
<stop offset="1" stop-color="#5496BC"/>
</linearGradient>
<linearGradient id="paint3_linear_20_226" x1="125.782" y1="249.457" x2="115.213" y2="249.457" gradientUnits="userSpaceOnUse">
<stop stop-color="#59C2E9"/>
<stop offset="1" stop-color="#5BD3EF"/>
</linearGradient>
</defs>
</svg>
