<svg width="204" height="486" viewBox="0 0 204 486" fill="none" xmlns="http://www.w3.org/2000/svg">
<path d="M79.6734 441.015H66.3872C66.3872 441.015 63.6343 452.6 62.0399 458.3C61.9442 458.661 61.9655 458.651 61.7529 459.333C61.58 462.173 61.5622 465.02 61.6998 467.862C61.9974 473.025 66.4084 482.06 71.1596 484.383C76.3784 486.954 77.622 486.551 83.1916 477.031C86.9118 470.66 87.1881 469.09 86.1039 462.441C84.6903 453.726 80.0879 442.667 80.0879 442.667" fill="#EFEFEF"/>
<path d="M180.447 390.635L172.125 399.711C172.125 399.711 175.845 410.254 177.97 415.727C178.109 416.078 178.417 416.997 178.651 417.647C179.05 418.572 179.553 419.451 180.149 420.27C183.338 424.452 187.281 427.168 192.011 426.899C197.23 426.61 201.471 426.703 202.64 420.012C203.81 413.321 202.64 410.275 196.104 404.244C189.567 398.214 180.468 390.614 180.468 390.614" fill="#EFEFEF"/>
<path d="M79.673 441.015L100.548 319.315C100.548 319.315 125.473 345.78 139.291 359.307C153.109 372.833 172.698 399.877 172.698 399.877L181.563 392.494C181.563 392.494 121.966 275.978 118.852 267.985C115.737 259.993 120.308 254.2 122.795 244.98C125.282 235.759 113.675 221.819 104.215 219.836C94.7556 217.854 33.0861 212.815 33.0861 212.815C33.0861 212.815 34.8932 211.067 17.5785 221.982C-2.61539 236.068 3.69073 267.481 22.8845 273.955C56.298 283.67 55.6302 278.198 55.6302 278.198C55.6302 278.198 68.2787 379.008 64.4842 402.974C60.6896 426.941 66.3868 441.015 66.3868 441.015H79.673Z" fill="url(#paint0_linear_20_245)"/>
<path d="M62.7624 19.3094C55.8216 21.7979 47.0421 55.1399 47.0421 55.1399L46.9039 55.016L43.12 58.7023L44.725 65.7341L54.0466 205.184C55.5878 206.733 31.8745 208.044 33.4051 209.583C31.7895 213.713 36.5194 230.936 45.3627 228.489C61.6995 223.967 71.4144 214.498 76.1868 216.005C89.5581 189.785 102.936 163.561 116.322 137.333L135.242 146.027C135.242 146.027 136.783 186.009 136.985 188.177C137.187 190.346 151.185 257.887 154.746 259.611C160.443 265.352 179.703 266.839 182.7 264.826C191.873 258.63 167.639 254.19 163.982 251.402C161.803 249.75 145.605 197.543 145.286 190.934C144.967 184.326 155.798 167.484 136.985 145.294C123.263 129.114 115.865 87.4699 104.322 40.2088C98.327 15.6541 94.7025 8.32275 88.7715 8.32275C79.0992 8.32275 68.7146 13.8264 62.7092 19.3094" fill="#FAF3DD"/>
<path d="M41.8549 92.0542C38.9859 97.028 35.6937 101.76 32.0125 106.201C28.2073 110.672 24.8592 123.651 23.116 131.406C22.1658 135.645 20.7179 139.765 18.8007 143.683C13.9113 153.658 4.47275 173.163 0.295552 183.355C-2.78686 190.893 19.0557 207.373 27.931 212.907C34.0001 216.697 32.5865 216.232 34.9992 214.446L38.6981 212.897C41.9931 211.049 45.9684 208.446 46.1384 207.259C46.4148 205.421 31.1728 195.57 26.1453 187.33C22.5314 181.424 31.3429 171.604 35.8708 161.846C42.599 147.318 44.8204 134.71 47.1163 135.774C50.8896 137.529 54.2165 177.325 36.0196 196.696C36.0196 196.696 35.4244 197.14 35.3713 197.346C34.7123 199.99 40.1968 202.179 45.7027 206.784C56.0766 215.458 55.6833 221.56 55.5132 221.767C55.0243 222.355 58.585 220.827 54.1102 224.338C52.9899 225.281 51.7462 226.076 50.4113 226.702C48.4556 227.508 53.7913 226.878 53.8764 226.868C55.2694 226.516 56.6925 226.288 58.128 226.186C59.5097 226.073 61.3167 226.186 65.5683 225.897C67.6197 225.763 70.3938 225.257 72.424 224.937L105.459 220.806C105.459 220.806 115.578 189.447 116.811 177.232C116.811 177.232 121.53 150.705 123.677 146.832C125.824 142.96 132.786 176.302 131.893 192.421C131.468 200.021 145.626 249.657 147.72 251.278C151.025 253.797 165.693 251.278 165.693 251.278C165.693 251.278 151.876 205.245 151.546 196.851C151.217 188.456 146.412 112.086 143.564 95.8644C141.863 86.2511 130.926 73.096 121.413 76.3796C111.9 79.6632 100.708 87.0462 87.8254 89.132C77.8554 90.7428 69.8517 88.8016 64.1865 87.5831C57.8622 86.2201 54.1421 85.0326 50.6026 85.931C48.494 86.5228 46.5742 87.6241 45.0224 89.132" fill="url(#paint1_linear_20_245)"/>
<path d="M69.4375 0.454337C69.4375 0.454337 52.5799 1.04291 47.765 17.1202C42.9501 33.1974 42.2379 55.5734 42.0678 59.0945C42.0314 62.9289 42.2944 66.7604 42.8544 70.5561C43.4714 75.7287 43.0454 80.9685 41.6002 85.9829C40.888 88.4404 40.0271 91.3523 39.0811 94.4603C38.911 95.0076 38.3158 95.7304 37.8907 96.763C36.1262 101.141 32.3529 103.444 27.2616 114.214C26.5176 115.783 25.1358 123.104 27.2616 127.441L28.3246 134.752C29.2918 137.767 32.2466 137.612 35.244 136.383C36.9222 135.654 38.5517 134.822 40.1227 133.895C45.2672 130.9 47.3186 127.245 49.6144 121.369C52.8031 113.253 61.3063 107.946 62.1248 106.986C62.9432 106.025 69.7989 101.017 69.9052 98.1157C70.4473 83.1846 67.6093 69.4513 63.9955 62.1406C60.3816 54.8299 51.9528 40.7972 57.6712 32.6192C63.3896 24.4411 75.4323 17.9979 76.0381 15.9534C76.644 13.9089 76.931 23.8423 83.2552 27.3117C89.5795 30.7812 98.6035 40.1777 98.6035 42.2222C98.6035 44.2667 100.729 50.9887 94.692 62.6879C88.6548 74.387 83.8611 89.2871 92.2792 100.398C100.697 111.508 121.775 127.007 123.284 130.518C124.793 134.029 123.284 149.61 122.721 158.398C122.157 167.185 139.833 143.394 139.228 131.995C138.622 120.595 140.737 115.628 128.694 98.0847C116.652 80.5412 108.839 50.4312 108.499 43.1205C108.159 35.8099 104.588 15.6333 97.3705 9.78886C91.1845 4.79118 89.8558 0 76.9841 0C74.4448 0.0153935 71.9081 0.160167 69.3844 0.433697" fill="url(#paint2_linear_20_245)"/>
<path d="M61.6996 203.366L61.9866 203.728C62.6668 204.657 65.7918 208.891 67.7369 211.988C69.9265 215.468 57.5012 222.18 54.9821 223.626C54.812 223.729 54.7695 223.729 54.5038 222.954C53.6901 220.271 52.7321 217.631 51.6339 215.045C50.0609 211.359 46.16 207.466 46.0644 207.249C45.9687 207.032 48.2858 205.525 53.781 202.385C55.0458 201.663 58.4472 200.021 59.4888 200.857L61.6996 203.366Z" fill="#0E144D"/>
<path d="M33.5967 215.447C35.4249 219.402 37.912 221.643 39.1025 223.636C40.2938 225.58 41.917 227.242 43.8537 228.499C43.9799 228.57 44.1007 228.649 44.215 228.737C44.2894 228.799 43.9812 229.284 43.8962 229.408C43.7518 229.605 43.5842 229.785 43.3966 229.945C42.4945 230.918 41.4613 231.769 40.3249 232.475C40.3249 232.475 38.199 234.209 37.4231 233.827C36.6472 233.445 28.1865 219.702 28.1865 219.702C28.1897 219.412 28.2661 219.128 28.4088 218.874C28.5515 218.62 28.7562 218.405 29.0049 218.246C29.919 217.512 33.5967 215.447 33.5967 215.447Z" fill="#0E144D"/>
<path opacity="0.07" d="M80.9697 75.0686C84.6838 72.6733 88.2115 70.0159 91.5243 67.1178C94.9469 63.7929 87.0601 81.5739 87.8148 84.1244C88.5695 86.6748 80.9697 75.0686 80.9697 75.0686Z" fill="black"/>
<path opacity="0.1" d="M123.805 133.068C121.211 145.397 121.009 156.818 118.416 169.105C114.919 185.72 110.88 203.18 105.544 219.877L86.6774 223.078C86.6774 223.078 83.2868 212.112 92.3852 199.67C101.484 187.227 100.888 187.516 100.888 180.422C100.888 173.329 98.4012 165.367 102.132 159.368C105.863 153.369 123.805 133.068 123.805 133.068Z" fill="black"/>
<path opacity="0.1" d="M68.8101 436.254L71.106 435.439L79.6092 338.768C79.9812 332.191 84.0096 323.466 89.8024 319.242C91.0615 318.357 92.1106 317.219 92.8788 315.907C93.6471 314.594 94.1167 313.136 94.2559 311.632L79.0246 286.572C78.3549 285.281 78.8757 285.931 74.773 279.437L72.6472 276.432C71.3551 274.536 69.8072 272.817 68.0448 271.32C62.3689 266.591 54.9286 261.098 50.5814 261.098L23.7006 260.85C23.7006 260.85 15.4844 261.057 15.4844 266.209C15.4844 271.362 40.2287 276.194 47.3714 276.69C54.5141 277.185 57.4158 277.082 59.3184 296.082C63.4531 337.385 63.5062 354.939 65.6958 396.397C65.834 399.081 64.2821 411.266 64.027 415.809C63.8782 418.401 64.0271 431.164 65.1644 436.863C64.888 435.759 67.6728 436.461 68.8101 436.254Z" fill="black"/>
<path opacity="0.1" d="M58.7871 238.289C58.7871 238.289 85.3596 242.873 100.24 251.278C113.197 258.579 117.013 267.5 117.247 268.698C117.863 271.796 116.364 264.01 118.554 257.443C120.744 250.876 94.2667 241.025 94.2667 241.025L58.7871 238.289Z" fill="black"/>
<defs>
<linearGradient id="paint0_linear_20_245" x1="-2.61693" y1="326.595" x2="181.541" y2="326.595" gradientUnits="userSpaceOnUse">
<stop stop-color="#51C8C0"/>
<stop offset="0.520833" stop-color="#58B1D9"/>
<stop offset="1" stop-color="#5CA6E6"/>
</linearGradient>
<linearGradient id="paint1_linear_20_245" x1="143.804" y1="163.506" x2="21.1796" y2="163.506" gradientUnits="userSpaceOnUse">
<stop stop-color="#79D8AB"/>
<stop offset="1" stop-color="#D5CFAD"/>
</linearGradient>
<linearGradient id="paint2_linear_20_245" x1="26.185" y1="80.8475" x2="138.8" y2="80.8475" gradientUnits="userSpaceOnUse">
<stop stop-color="#3E1EA6"/>
<stop offset="1" stop-color="#538FBA"/>
</linearGradient>
</defs>
</svg>
