<svg width="81" height="275" viewBox="0 0 81 275" fill="none" xmlns="http://www.w3.org/2000/svg">
<path d="M30.5746 254.764L23.5642 256.357C23.5642 256.357 21.8647 261.881 21.0681 264.855C21.015 265.014 20.8557 265.545 20.7494 265.864C20.6432 266.395 20.5901 266.873 20.5901 267.404C20.7494 270.06 21.7585 272.343 24.0953 273.512C26.6977 274.839 28.7158 276.061 31.4775 273.512C34.2391 270.962 34.7171 269.369 33.5487 264.961C32.3803 260.553 30.5746 254.817 30.5746 254.764ZM71.2562 263.952C66.5295 262.465 64.5113 256.623 64.5113 256.623L55.0048 256.145C55.0048 256.145 54.7924 262.093 54.5268 265.333C54.2082 269.635 55.0048 271.547 57.8727 271.281C61.6965 270.962 77.3106 272.343 79.7536 270.803C83.0464 268.838 75.7173 265.333 71.2562 263.952Z" fill="#EFEFEF"/>
<path d="M15.9166 120.717C15.9166 120.717 12.3583 125.603 11.243 138.774C10.1277 151.945 12.6238 176.959 13.7922 181.792C14.9606 186.625 19.6342 231.821 20.8026 235.114C21.971 238.407 23.5643 256.411 23.5643 256.411L31.1058 256.623C31.1058 256.623 33.3363 233.149 33.3363 226.935C33.3363 220.721 36.4698 161.93 36.2573 157.628C36.0449 153.326 37.054 154.707 37.054 154.707C37.054 154.707 43.6395 175.738 45.6045 179.243C47.5696 182.748 51.0748 189.599 51.0748 189.599C51.0748 189.599 51.8714 211.64 52.8274 224.386C53.7833 237.132 54.7924 257.207 54.7924 257.207L64.9362 256.995C64.9362 256.995 67.273 223.43 67.273 216.366C67.273 209.303 69.3974 192.361 69.3974 190.396C69.3974 188.431 62.8119 154.123 62.8119 154.123L58.1914 120.664L15.9166 120.717Z" fill="url(#paint0_linear_3_1085)"/>
<path d="M27.8661 9.93139C24.414 11.206 20.0059 28.3602 20.0059 28.3602L19.9528 28.3071L18.0409 30.219L18.8375 33.8305L22.1834 90.3916L39.497 86.674L54.6331 70.635L64.0865 75.0962C64.0865 75.0962 64.83 95.6494 64.9362 96.7647C65.0424 97.88 66.6357 128.949 66.6357 130.967C66.6888 133.144 75.9298 142.916 77.47 141.854C82.0373 138.668 74.4427 132.773 72.637 131.339C71.5749 130.489 69.2912 101.598 69.1318 98.1986C68.9725 94.7997 74.3896 86.1429 64.9893 74.7244C58.1383 66.3863 54.4206 44.9834 48.6848 20.6594C45.6576 8.01946 43.8519 4.24872 40.8778 4.24872C38.1692 4.24872 34.4516 7.48837 27.8661 9.93139Z" fill="#FAF3DD"/>
<path d="M24.9451 58.1013C24.892 58.2606 18.3596 61.3409 15.5448 64.793C12.73 68.2451 10.4463 73.2374 10.4463 73.2374C10.4463 73.2374 6.30383 83.0094 3.43594 90.2323C1.89578 94.1092 -3.14958 109.989 2.90485 110.573C8.64063 111.104 21.3337 97.6144 23.2987 95.0652L25.4762 90.1792C25.6355 89.5418 22.0772 82.9563 22.1834 82.3721C22.2897 81.4162 30.5747 76.5832 31.8493 79.4511C32.2742 80.4071 33.3895 83.1688 33.7081 84.0185C34.5047 86.0898 22.449 90.126 22.449 91.9849C22.449 94.2686 21.4399 102.713 19.7935 106.855C18.1472 110.998 15.651 120.823 15.651 120.823L58.0321 120.929C58.0321 120.929 56.5981 102.076 57.1823 95.8087C57.1823 95.8087 58.988 75.2555 60.0502 73.2374C61.1124 71.2192 62.9181 98.6235 62.6526 104.253C62.4401 108.183 65.9984 131.764 67.0075 132.613C68.6539 133.888 72.5308 131.339 72.5308 131.339C72.5308 131.339 72.3715 105.475 72.2122 101.173C72.0529 96.8709 72.3184 62.0845 66.6357 55.8176C60.9531 49.5507 59.4129 49.71 54.6862 51.3564C49.9595 53.0028 47.6227 54.5961 41.1965 55.6583C37.2664 56.3487 33.177 55.8176 29.5125 54.2243C30.5216 50.5598 28.3972 56.7736 28.6628 55.0741" fill="url(#paint1_linear_3_1085)"/>
<path d="M31.212 0.212436C31.212 0.212436 22.7676 0.531091 20.3777 8.763C17.9878 16.9949 17.616 28.5727 17.5629 30.3784C17.4567 32.2903 18.4658 45.2489 17.4036 48.8603C16.4476 52.0469 13.7391 57.942 12.0927 62.0314C11.4554 63.6247 10.9774 65.3242 10.6588 67.0236L10.4463 68.4045C10.8712 69.8384 12.4114 70.6882 13.8984 70.2102C14.0046 70.1571 14.1108 70.1571 14.164 70.104C15.0137 69.7322 15.8103 69.3073 16.607 68.8294C19.1562 67.2892 22.3959 63.1998 24.9451 61.9252C27.6537 60.5974 30.734 54.4368 31.1589 53.9588C31.5837 53.4808 31.4244 51.9407 31.4775 50.4536C31.7431 42.7528 30.3091 35.6893 28.5034 31.9717C26.6977 28.254 22.5552 20.9781 25.4231 16.7825C28.291 12.5868 34.2923 9.24098 34.5578 8.23191C34.8234 7.22283 34.9827 12.2682 38.1693 14.0739C41.3558 15.8796 45.817 20.7125 45.817 21.7747C45.817 22.8369 46.8791 26.289 43.8519 32.2903C40.8247 38.2916 38.4348 45.9393 42.6304 51.6751C46.826 57.4109 57.3947 65.3773 58.1383 67.183C58.8818 68.9887 58.1383 77.0081 57.8727 81.5224C57.6072 86.0367 66.4233 73.8216 66.1046 67.9265C65.786 62.0314 66.8482 59.4822 60.8468 50.5067C54.8455 41.5313 50.9154 26.0234 50.7561 22.2527C50.5968 18.482 48.7911 8.07258 45.1797 5.04536C42.0993 2.49613 41.4089 0 34.9827 0C33.7081 0 32.4335 0.106218 31.212 0.212436Z" fill="url(#paint2_linear_3_1085)"/>
<g opacity="0.07">
<mask id="mask0_3_1085" style="mask-type:luminance" maskUnits="userSpaceOnUse" x="10" y="8" width="26" height="267">
<path d="M10.765 8.60364H35.1951V274.149H10.765V8.60364Z" fill="white"/>
</mask>
<g mask="url(#mask0_3_1085)">
<path d="M27.9723 79.1856C26.6977 79.7167 25.4762 80.3009 24.3078 80.9913L23.0332 81.6286C23.0332 81.6286 9.54345 95.7025 10.1276 94.959C12.73 91.7193 20.8026 74.512 23.5111 70.5288C26.379 66.3863 27.9723 68.0327 31.1057 79.0262" fill="black"/>
</g>
</g>
<path opacity="0.07" d="M27.335 256.304C27.3881 256.464 27.3881 256.623 27.3881 256.782C27.4412 257.951 27.3881 260.872 26.1135 262.731C24.5202 265.174 28.291 270.538 28.291 271.865C28.291 273.193 26.5384 274.415 25.3169 274.043C24.0953 273.671 18.9969 270.803 21.015 264.643C21.8117 262.146 22.2896 259.969 22.7676 258.588C23.0332 257.898 23.2456 257.207 23.458 256.517C23.5111 256.198 23.5111 255.88 23.5111 255.561C23.458 255.136 23.458 254.658 23.4049 254.18C23.1394 251.79 13.0487 177.278 12.6769 174.41C12.3582 171.861 10.8712 156.088 11.0305 146.847C10.9243 146.05 10.9243 145.253 10.9774 144.51C10.9774 144.297 11.0836 143.395 11.0305 143.023C11.0836 142.173 11.1367 141.323 11.243 140.474C11.0836 139.783 11.1898 139.783 11.243 138.668C11.2961 137.553 11.243 136.915 11.3492 136.225C12.3582 129.958 14.6419 122.841 15.7572 120.823L16.0759 119.708C16.0759 119.708 18.6251 110.254 19.4749 108.502C20.2184 106.909 22.3427 98.5705 22.1303 96.8179C22.0241 95.8619 25.4231 92.1443 25.4231 92.1443L26.1135 91.5601C26.4321 91.507 26.8039 91.5601 27.1226 91.6663C27.8661 91.985 30.734 89.4888 31.212 91.0821C34.6109 101.969 35.9918 106.59 29.9905 113.069C23.9891 119.549 29.5125 125.337 29.6187 129.905C29.8842 141.164 24.414 139.942 24.0953 146.953C23.7767 153.963 25.3169 159.009 25.4231 162.673C25.6886 174.729 25.5293 177.119 24.892 181.845C24.2547 186.572 21.015 195.548 24.6264 213.18C28.2379 230.812 27.7068 232.405 27.335 242.39C26.9632 252.374 27.335 256.304 27.335 256.304Z" fill="black"/>
<path d="M21.7586 74.1403L21.8648 74.0872C22.2897 73.8747 24.7858 72.6001 26.5384 71.9097C28.5034 71.1131 30.8933 77.8048 31.4775 79.1325C31.5306 79.2388 31.5306 79.2388 31.1058 79.2919C29.6718 79.4512 28.2379 79.7167 26.857 80.0885C24.8389 80.5665 22.5552 82.1598 22.449 82.2129C22.3428 82.266 21.7586 80.9913 20.5902 78.0172C20.3246 77.3268 19.7404 75.5211 20.2715 75.0962L21.7586 74.1403Z" fill="#0E144D"/>
<path opacity="0.07" d="M37.0008 38.6103C38.2754 39.0882 39.7625 38.7696 40.7185 37.7605C42.4179 36.061 40.0812 41.9561 40.4529 43.2839C40.8247 44.6116 37.0008 38.6103 37.0008 38.6103Z" fill="black"/>
<path d="M25.4762 89.7012C25.4762 89.7012 33.4957 84.4434 33.6019 84.6558C33.8143 85.1338 34.5047 87.0457 34.5047 87.0457C34.5047 87.0457 35.142 88.2672 34.9296 88.639C34.7172 89.0107 27.1226 92.2504 27.1226 92.2504C26.8039 92.1973 26.5384 92.038 26.4321 91.7724C26.0604 91.1351 25.7417 90.4447 25.4762 89.7012Z" fill="#0E144D"/>
<defs>
<linearGradient id="paint0_linear_3_1085" x1="10.9625" y1="188.936" x2="69.3974" y2="188.936" gradientUnits="userSpaceOnUse">
<stop stop-color="#51C8C0"/>
<stop offset="1" stop-color="#5CA6E6"/>
</linearGradient>
<linearGradient id="paint1_linear_3_1085" x1="-0.000212664" y1="91.6779" x2="72.5308" y2="91.6779" gradientUnits="userSpaceOnUse">
<stop stop-color="#D5CFAD"/>
<stop offset="1" stop-color="#79D8AB"/>
</linearGradient>
<linearGradient id="paint2_linear_3_1085" x1="10.4463" y1="41.2514" x2="66.1131" y2="41.2514" gradientUnits="userSpaceOnUse">
<stop stop-color="#3E1EA6"/>
<stop offset="1" stop-color="#5495BB"/>
</linearGradient>
</defs>
</svg>
