<svg width="1080" height="1080" viewBox="0 0 1080 1080" fill="none" xmlns="http://www.w3.org/2000/svg">
    <g clip-path="url(#clip0_303_43)">
    <path d="M305 928V914L641 226H459C428.333 226 404 229.667 386 237C368.667 244.333 356 256.667 348 274C340 290.667 335.333 313.333 334 342L333 390H322L328 214H755V228L418 916H634C663.333 916 686.667 912.333 704 905C721.333 897.667 734.333 885.667 743 869C751.667 851.667 756.667 828.667 758 800L760 751H770L767 928H305Z" fill="white"/>
    <path d="M305 928H300V933H305V928ZM305 914L300.507 911.806L300 912.844V914H305ZM641 226L645.493 228.194L649.006 221H641V226ZM386 237L384.114 232.369L384.083 232.382L384.052 232.395L386 237ZM348 274L352.508 276.164L352.524 276.13L352.54 276.095L348 274ZM334 342L329.005 341.768L329.002 341.832L329.001 341.896L334 342ZM333 390V395H337.897L337.999 390.104L333 390ZM322 390L317.003 389.83L316.827 395H322V390ZM328 214V209H323.168L323.003 213.83L328 214ZM755 214H760V209H755V214ZM755 228L759.49 230.199L760 229.159V228H755ZM418 916L413.51 913.801L409.983 921H418V916ZM704 905L702.052 900.395L702.052 900.395L704 905ZM743 869L747.436 871.307L747.454 871.272L747.472 871.236L743 869ZM758 800L762.995 800.232L762.995 800.218L762.996 800.204L758 800ZM760 751V746H755.2L755.004 750.796L760 751ZM770 751L774.999 751.085L775.085 746H770V751ZM767 928V933H771.916L771.999 928.085L767 928ZM310 928V914H300V928H310ZM309.493 916.194L645.493 228.194L636.507 223.806L300.507 911.806L309.493 916.194ZM641 221H459V231H641V221ZM459 221C428.018 221 402.958 224.692 384.114 232.369L387.886 241.63C405.042 234.641 428.649 231 459 231V221ZM384.052 232.395C365.554 240.221 351.973 253.459 343.46 271.905L352.54 276.095C360.027 259.874 371.779 248.446 387.948 241.605L384.052 232.395ZM343.492 271.836C335.087 289.348 330.355 312.762 329.005 341.768L338.995 342.232C340.312 313.905 344.913 291.985 352.508 276.164L343.492 271.836ZM329.001 341.896L328.001 389.896L337.999 390.104L338.999 342.104L329.001 341.896ZM333 385H322V395H333V385ZM326.997 390.17L332.997 214.17L323.003 213.83L317.003 389.83L326.997 390.17ZM328 219H755V209H328V219ZM750 214V228H760V214H750ZM750.51 225.801L413.51 913.801L422.49 918.199L759.49 230.199L750.51 225.801ZM418 921H634V911H418V921ZM634 921C663.669 921 687.752 917.303 705.948 909.605L702.052 900.395C685.582 907.363 662.998 911 634 911V921ZM705.948 909.605C724.351 901.819 738.232 889.008 747.436 871.307L738.564 866.693C730.435 882.326 718.316 893.514 702.052 900.395L705.948 909.605ZM747.472 871.236C756.564 853.053 761.643 829.29 762.995 800.232L753.005 799.768C751.69 828.043 746.77 850.28 738.528 866.764L747.472 871.236ZM762.996 800.204L764.996 751.204L755.004 750.796L753.004 799.796L762.996 800.204ZM760 756H770V746H760V756ZM765.001 750.915L762.001 927.915L771.999 928.085L774.999 751.085L765.001 750.915ZM767 923H305V933H767V923Z" fill="white"/>
    <path d="M313.2 617C311.733 617 310.267 616.8 308.8 616.4C307.333 616 306.267 615.2 305.6 614C305.067 612.933 305.133 611.6 305.8 610C306.467 608.533 307.4 607.2 308.6 606C309.667 604.933 311 603.867 312.6 602.8C314.333 601.733 316.133 600.867 318 600.2H318.4C319.067 600.2 319.4 600.467 319.4 601C319.4 601.4 319.133 601.8 318.6 602.2C316.2 603.4 314.333 604.867 313 606.6C312.067 607.667 311.6 608.8 311.6 610C311.6 612.133 312.867 613.2 315.4 613.2C318.2 613.2 321.2 612.333 324.4 610.6C327.733 609 330.867 606.867 333.8 604.2C336.867 601.4 339.333 598.467 341.2 595.4C343.067 592.333 344 589.4 344 586.6C344 584.733 343 583.067 341 581.6C339 580 336.8 578.6 334.4 577.4C332 576.067 330.2 575 329 574.2C327.533 573.133 326.2 572.067 325 571C323.8 569.8 322.867 568.533 322.2 567.2C321.133 569.067 319.733 571.333 318 574C316.4 576.533 314.467 579.2 312.2 582C311.4 582.8 310.6 583.2 309.8 583.2C309 583.2 308.6 582.867 308.6 582.2C308.6 581.8 308.933 581.133 309.6 580.2C313.2 575.933 315.867 572 317.6 568.4C319.333 564.8 320.533 562.067 321.2 560.2C321.733 556.333 323.533 552.667 326.6 549.2C329.667 545.733 333.4 542.733 337.8 540.2C342.2 537.533 346.667 535.467 351.2 534C355.867 532.533 360 531.8 363.6 531.8C367.2 531.8 370.4 532.467 373.2 533.8C376 535.133 377.4 537.267 377.4 540.2C377.4 541.8 376.933 543.533 376 545.4C374.8 547.933 372.8 550.2 370 552.2C369.867 552.333 369.667 552.4 369.4 552.4C368.333 552.4 367.8 551.933 367.8 551C367.8 550.333 368.133 549.667 368.8 549C369.867 548.067 370.733 546.933 371.4 545.6C372.067 544.267 372.4 543 372.4 541.8C372.4 539.4 371 538.2 368.2 538.2C366.2 538.2 363.867 538.6 361.2 539.4C358.533 540.067 355.933 540.933 353.4 542C351 542.933 349 543.8 347.4 544.6C344.067 546.2 341 548.2 338.2 550.6C335.4 552.867 332.733 555.733 330.2 559.2C328.467 561.467 327.6 563.6 327.6 565.6C327.6 568 329.2 570.2 332.4 572.2C335.733 574.067 339 575.867 342.2 577.6C345.533 579.333 348.333 581.2 350.6 583.2C352.867 585.2 354 587.6 354 590.4C354 593.467 352.067 597.133 348.2 601.4C345.8 604.067 342.533 606.6 338.4 609C334.4 611.4 330.133 613.333 325.6 614.8C321.067 616.267 316.933 617 313.2 617ZM371.78 609.6C370.713 609.6 370.446 609.133 370.98 608.2C371.246 607.4 371.913 605.4 372.98 602.2C374.18 599 375.58 595.133 377.18 590.6C378.78 586.067 380.446 581.467 382.18 576.8C383.913 572 385.513 567.733 386.98 564C386.046 565.2 384.58 566.933 382.58 569.2C380.713 571.467 378.713 573.867 376.58 576.4C374.446 578.933 372.446 581.133 370.58 583C370.18 583.4 369.913 583.6 369.78 583.6C369.38 583.6 369.18 583.2 369.18 582.4C369.18 580.8 369.58 579.333 370.38 578C373.313 574.267 376.113 570.8 378.78 567.6C381.58 564.267 384.113 561.133 386.38 558.2C385.046 557.4 384.38 556.4 384.38 555.2C384.38 553.333 385.313 552.4 387.18 552.4C387.98 552.4 388.58 552.533 388.98 552.8C389.113 552.933 389.246 553 389.38 553C389.513 553 389.646 553.133 389.78 553.4C390.446 552.467 390.98 551.6 391.38 550.8C391.913 550 392.38 549.133 392.78 548.2C393.313 547 394.38 544.733 395.98 541.4C397.713 537.933 399.846 533.867 402.38 529.2C404.913 524.533 407.78 519.733 410.98 514.8C414.313 509.733 417.846 505.067 421.58 500.8C425.446 496.4 429.38 492.867 433.38 490.2C437.513 487.533 441.713 486.2 445.98 486.2C446.513 486.2 447.046 486.267 447.58 486.4C448.113 486.4 448.646 486.467 449.18 486.6C452.513 487.267 454.846 488.467 456.18 490.2C457.513 491.8 458.18 493.733 458.18 496C458.18 497.6 457.846 499.333 457.18 501.2C456.646 502.933 455.846 504.667 454.78 506.4C452.113 511.067 448.58 515.8 444.18 520.6C439.78 525.267 434.846 529.933 429.38 534.6C424.046 539.133 418.646 543.6 413.18 548C407.846 552.267 402.846 556.333 398.18 560.2C394.98 567 392.513 573.067 390.78 578.4C389.046 583.6 387.713 587.8 386.78 591C388.246 589.133 390.446 586.467 393.38 583C396.313 579.533 399.646 575.8 403.38 571.8C407.113 567.8 410.98 564 414.98 560.4C418.98 556.667 422.78 553.667 426.38 551.4C429.98 549 433.046 547.8 435.58 547.8C438.78 547.8 440.38 549.467 440.38 552.8C440.38 556 439.246 559.533 436.98 563.4C434.713 567.267 432.846 570.533 431.38 573.2C429.513 577.067 427.98 580.8 426.78 584.4C425.713 587.867 425.046 590.733 424.78 593C424.646 593.533 424.58 594.067 424.58 594.6C424.58 595 424.58 595.467 424.58 596C424.58 601.333 426.446 604 430.18 604C432.18 604 434.846 602.8 438.18 600.4C441.513 598 444.913 595.133 448.38 591.8C451.846 588.467 454.98 585.267 457.78 582.2C460.713 579 462.713 576.6 463.78 575C464.18 574.6 464.646 574.4 465.18 574.4C465.713 574.4 466.113 574.6 466.38 575C466.646 575.4 466.646 575.933 466.38 576.6C465.046 578.867 462.98 581.733 460.18 585.2C457.38 588.533 454.246 591.933 450.78 595.4C447.313 598.733 443.913 601.6 440.58 604C438.846 605.333 436.58 606.467 433.78 607.4C431.113 608.467 428.446 609 425.78 609C423.646 609 421.58 608.467 419.58 607.4C417.58 606.333 416.113 604.333 415.18 601.4C414.78 600.2 414.58 598.533 414.58 596.4C414.58 595.733 414.58 595.067 414.58 594.4C414.58 593.6 414.646 592.8 414.78 592C415.313 587.733 416.713 583.267 418.98 578.6C421.38 573.8 423.58 569.533 425.58 565.8C426.113 564.733 426.513 563.8 426.78 563C427.18 562.2 427.38 561.533 427.38 561C427.38 559.933 426.913 559.4 425.98 559.4C425.046 559.4 423.58 560 421.58 561.2C419.58 562.4 416.913 564.467 413.58 567.4C410.646 569.933 407.513 573.267 404.18 577.4C400.98 581.4 397.78 585.533 394.58 589.8C391.513 594.067 388.78 597.733 386.38 600.8C384.113 603.867 382.513 605.667 381.58 606.2C380.913 606.6 379.38 607.267 376.98 608.2C374.58 609.133 372.846 609.6 371.78 609.6ZM401.98 551.2C407.313 547.6 413.113 543.133 419.38 537.8C425.646 532.333 431.513 526.533 436.98 520.4C442.58 514.133 446.846 508.2 449.78 502.6C451.38 499.533 452.18 497 452.18 495C452.18 492.733 451.18 491.6 449.18 491.6C448.246 491.6 447.18 491.867 445.98 492.4C444.78 492.8 443.38 493.6 441.78 494.8C432.846 501.733 425.313 510 419.18 519.6C413.046 529.067 407.313 539.6 401.98 551.2ZM645.738 613.6C643.071 614.533 640.338 615 637.538 615C633.938 615 630.338 614.267 626.738 612.8C623.271 611.333 619.604 609.4 615.738 607C613.471 605.667 610.871 604.467 607.938 603.4C605.404 605.133 602.938 606.6 600.538 607.8C598.271 609.133 596.204 609.8 594.338 609.8C593.271 609.8 592.538 609.667 592.138 609.4C591.338 609 590.938 608 590.938 606.4C590.938 604.4 591.938 602.067 593.938 599.4C595.938 596.733 599.338 595.4 604.138 595.4C606.671 595.4 609.338 595.8 612.138 596.6C615.604 593.933 617.671 592.133 618.337 591.2C623.804 586.533 629.271 581.6 634.738 576.4C640.338 571.067 645.204 566.4 649.338 562.4C646.004 561.333 643.004 560.467 640.337 559.8C637.671 559.133 634.938 558.6 632.138 558.2C631.471 558.067 630.804 558 630.138 558C629.471 557.867 628.804 557.8 628.138 557.8C625.071 557.8 622.471 558.333 620.338 559.4C618.204 560.467 616.204 561.867 614.338 563.6C612.071 565.6 609.871 567.867 607.738 570.4C605.604 572.8 603.604 575.2 601.738 577.6C601.338 578.133 600.738 578.933 599.938 580C599.138 580.933 598.471 581.133 597.938 580.6C597.404 580.067 597.138 579.533 597.138 579C597.138 578.467 597.338 577.933 597.738 577.4C600.671 573.4 603.338 569.733 605.738 566.4C608.271 562.933 610.138 560.467 611.338 559C613.871 555.267 616.404 552.8 618.938 551.6C621.471 550.267 624.004 549.6 626.538 549.6C628.804 549.6 631.138 549.933 633.538 550.6C635.938 551.133 638.404 551.733 640.938 552.4C643.338 552.933 645.871 553.533 648.538 554.2C651.338 554.733 653.938 555.267 656.338 555.8C657.404 554.867 659.271 553.667 661.938 552.2C664.738 550.733 667.071 550 668.938 550C670.804 550 671.738 550.933 671.738 552.8C671.738 555.067 670.671 557.133 668.538 559C666.538 560.733 664.138 562.067 661.338 563C658.671 563.8 656.404 564 654.538 563.6C650.004 567.467 644.538 572.133 638.138 577.6C631.738 582.933 625.804 588.067 620.338 593C619.538 593.533 618.671 594.2 617.738 595C616.938 595.8 616.004 596.667 614.938 597.6C616.004 598.133 617.004 598.6 617.938 599C619.004 599.4 620.004 599.867 620.938 600.4C624.671 602.667 628.204 604.6 631.538 606.2C635.004 607.8 638.404 608.6 641.737 608.6C644.938 608.6 648.071 607.733 651.138 606C653.938 604.4 657.404 601.867 661.538 598.4C665.671 594.8 669.804 590.867 673.938 586.6C678.071 582.333 681.404 578.467 683.938 575C684.338 574.467 685.004 574.2 685.938 574.2C686.471 574.2 686.871 574.333 687.138 574.6C687.538 574.733 687.604 575.067 687.338 575.6C686.271 577.467 684.471 579.867 681.938 582.8C679.538 585.733 676.738 588.867 673.538 592.2C670.338 595.4 667.138 598.467 663.938 601.4C660.738 604.2 657.871 606.533 655.338 608.4C652.938 610.133 651.004 611.333 649.538 612C648.071 612.8 646.804 613.333 645.738 613.6ZM736.917 609C734.651 609 732.517 608.467 730.517 607.4C728.651 606.333 727.251 604.333 726.317 601.4C725.917 600.2 725.717 598.533 725.717 596.4C725.717 593.467 726.117 590.2 726.917 586.6C727.717 583 728.584 579.933 729.517 577.4C728.851 577.667 727.584 578.867 725.717 581C723.984 583 721.784 585.467 719.117 588.4C716.584 591.2 713.717 594.067 710.517 597C707.451 599.8 704.251 602.133 700.917 604C697.584 605.867 694.317 606.8 691.117 606.8C688.984 606.8 686.717 606.2 684.317 605C681.917 603.667 679.984 602 678.517 600C676.517 597.333 675.517 594.6 675.517 591.8C675.517 588.2 676.717 584.467 679.117 580.6C681.651 576.733 684.851 573 688.717 569.4C692.717 565.667 696.917 562.333 701.317 559.4C705.851 556.333 710.117 553.8 714.117 551.8C718.251 549.667 721.584 548.267 724.117 547.6C726.784 546.8 729.784 546.4 733.117 546.4C734.984 546.4 736.917 546.667 738.917 547.2C740.917 547.6 742.584 548.333 743.917 549.4C744.984 549.933 745.851 550.667 746.517 551.6C747.184 552.533 747.517 553.533 747.517 554.6C747.517 555.667 747.051 556 746.117 555.6C745.051 554 743.584 553 741.717 552.6C739.984 552.067 738.184 551.8 736.317 551.8C730.984 551.8 725.117 553.533 718.717 557C712.317 560.467 706.584 564.533 701.517 569.2C699.917 570.533 697.717 572.867 694.917 576.2C692.251 579.4 689.784 582.933 687.517 586.8C685.251 590.667 684.117 594.2 684.117 597.4C684.117 599.133 684.584 600.667 685.517 602C686.051 602.933 686.917 603.4 688.117 603.4C689.984 603.4 692.451 602.4 695.517 600.4C698.717 598.4 701.984 596 705.317 593.2C708.651 590.267 711.651 587.467 714.317 584.8C717.117 582.133 719.117 580.2 720.317 579C720.984 578.333 722.251 577 724.117 575C726.117 572.867 728.251 570.6 730.517 568.2C732.784 565.8 734.784 563.733 736.517 562C738.384 560.267 739.584 559.4 740.117 559.4C740.784 559.4 741.851 559.6 743.317 560C744.917 560.267 746.251 560.733 747.317 561.4C748.384 562.067 748.584 562.933 747.917 564C744.451 569.067 741.651 574.4 739.517 580C737.517 585.467 736.317 589.8 735.917 593C735.784 593.533 735.717 594.067 735.717 594.6C735.717 595 735.717 595.467 735.717 596C735.717 601.333 737.584 604 741.317 604C743.317 604 745.984 602.8 749.317 600.4C752.651 598 756.051 595.133 759.517 591.8C762.984 588.467 766.117 585.267 768.917 582.2C771.851 579 773.851 576.6 774.917 575C775.317 574.6 775.717 574.4 776.117 574.4C776.651 574.4 777.117 574.667 777.517 575.2C777.917 575.6 777.917 576.133 777.517 576.8C776.051 579.2 773.917 582.067 771.117 585.4C768.317 588.733 765.184 592.067 761.717 595.4C758.251 598.733 754.851 601.6 751.517 604C749.784 605.333 747.584 606.467 744.917 607.4C742.251 608.467 739.584 609 736.917 609Z" fill="white"/>
    <path d="M516.995 609C514.729 609 512.595 608.467 510.595 607.4C508.729 606.333 507.329 604.333 506.395 601.4C505.995 600.2 505.795 598.533 505.795 596.4C505.795 593.467 506.195 590.2 506.995 586.6C507.795 583 508.662 579.933 509.595 577.4C508.929 577.667 507.662 578.867 505.795 581C504.062 583 501.862 585.467 499.195 588.4C496.662 591.2 493.795 594.067 490.595 597C487.529 599.8 484.329 602.133 480.995 604C477.662 605.867 474.395 606.8 471.195 606.8C469.062 606.8 466.795 606.2 464.395 605C461.995 603.667 460.062 602 458.595 600C456.595 597.333 455.595 594.6 455.595 591.8C455.595 588.2 456.795 584.467 459.195 580.6C461.729 576.733 464.929 573 468.795 569.4C472.795 565.667 476.995 562.333 481.395 559.4C485.929 556.333 490.195 553.8 494.195 551.8C498.329 549.667 501.662 548.267 504.195 547.6C506.862 546.8 509.862 546.4 513.195 546.4C515.062 546.4 516.995 546.667 518.995 547.2C520.995 547.6 522.662 548.333 523.995 549.4C525.062 549.933 525.929 550.667 526.595 551.6C527.262 552.533 527.595 553.533 527.595 554.6C527.595 555.667 527.129 556 526.195 555.6C525.129 554 523.662 553 521.795 552.6C520.062 552.067 518.262 551.8 516.395 551.8C511.062 551.8 505.195 553.533 498.795 557C492.395 560.467 486.662 564.533 481.595 569.2C479.995 570.533 477.795 572.867 474.995 576.2C472.329 579.4 469.862 582.933 467.595 586.8C465.329 590.667 464.195 594.2 464.195 597.4C464.195 599.133 464.662 600.667 465.595 602C466.129 602.933 466.995 603.4 468.195 603.4C470.062 603.4 472.529 602.4 475.595 600.4C478.795 598.4 482.062 596 485.395 593.2C488.729 590.267 491.729 587.467 494.395 584.8C497.195 582.133 499.195 580.2 500.395 579C501.062 578.333 502.329 577 504.195 575C506.195 572.867 508.329 570.6 510.595 568.2C512.862 565.8 514.862 563.733 516.595 562C518.462 560.267 519.662 559.4 520.195 559.4C520.862 559.4 521.929 559.6 523.395 560C524.995 560.267 526.329 560.733 527.395 561.4C528.462 562.067 528.662 562.933 527.995 564C524.529 569.067 521.729 574.4 519.595 580C517.595 585.467 516.395 589.8 515.995 593C515.862 593.533 515.795 594.067 515.795 594.6C515.795 595 515.795 595.467 515.795 596C515.795 601.333 517.662 604 521.395 604C523.395 604 526.062 602.8 529.395 600.4C532.729 598 536.129 595.133 539.595 591.8C543.062 588.467 546.195 585.267 548.995 582.2C551.929 579 553.929 576.6 554.995 575C555.395 574.6 555.795 574.4 556.195 574.4C556.729 574.4 557.195 574.667 557.595 575.2C557.995 575.6 557.995 576.133 557.595 576.8C556.129 579.2 553.995 582.067 551.195 585.4C548.395 588.733 545.262 592.067 541.795 595.4C538.329 598.733 534.929 601.6 531.595 604C529.862 605.333 527.662 606.467 524.995 607.4C522.329 608.467 519.662 609 516.995 609ZM583.42 537.4C581.687 537.4 579.887 537.267 578.02 537C576.154 536.6 575.22 535.333 575.22 533.2C575.22 532.8 576.087 531.867 577.82 530.4C579.687 528.933 581.554 527.467 583.42 526C585.42 524.4 586.62 523.467 587.02 523.2C589.287 521.333 590.687 520.4 591.22 520.4C591.887 520.4 591.887 521.267 591.22 523C590.554 524.733 590.22 526.267 590.22 527.6C590.22 528.267 589.82 529.4 589.02 531C588.22 532.6 587.287 534.067 586.22 535.4C585.154 536.733 584.22 537.4 583.42 537.4ZM561.62 609C559.22 609 557.02 608.467 555.02 607.4C553.154 606.333 551.754 604.333 550.82 601.4C550.687 601 550.554 600.6 550.42 600.2C550.42 599.8 550.42 599.333 550.42 598.8C550.42 596.133 551.02 592.8 552.22 588.8C553.42 584.8 554.887 580.933 556.62 577.2C555.82 578.267 554.887 579.6 553.82 581.2C552.754 582.667 551.22 584.6 549.22 587C548.687 587.533 548.087 587.8 547.42 587.8C546.487 587.8 546.02 587.267 546.02 586.2C546.02 585.4 546.287 584.733 546.82 584.2C550.287 579.8 553.354 575.867 556.02 572.4C558.82 568.933 560.887 566 562.22 563.6C562.22 563.467 562.154 563.4 562.02 563.4C562.02 563.267 562.02 563.133 562.02 563C562.02 562.6 562.22 562 562.62 561.2C563.687 558 564.754 555.333 565.82 553.2C567.02 550.933 568.287 549.667 569.62 549.4C569.887 549.4 570.154 549.4 570.42 549.4C570.687 549.267 570.954 549.2 571.22 549.2C572.687 549.2 574.02 549.533 575.22 550.2C576.42 550.867 577.02 551.867 577.02 553.2C577.02 554.4 576.554 555.867 575.62 557.6C574.82 559.333 573.754 561.467 572.42 564C569.487 570.133 566.82 575.733 564.42 580.8C562.154 585.733 560.887 589.8 560.62 593C560.487 593.533 560.42 594.067 560.42 594.6C560.42 595 560.42 595.467 560.42 596C560.42 601.333 562.154 604 565.62 604C567.754 604 570.487 602.867 573.82 600.6C577.154 598.2 580.554 595.333 584.02 592C587.487 588.533 590.62 585.267 593.42 582.2C596.354 579 598.354 576.6 599.42 575C599.82 574.6 600.22 574.4 600.62 574.4C601.154 574.4 601.554 574.6 601.82 575C602.22 575.4 602.287 575.933 602.02 576.6C600.82 578.867 598.754 581.733 595.82 585.2C593.02 588.533 589.82 591.933 586.22 595.4C582.754 598.733 579.354 601.6 576.02 604C574.287 605.333 572.087 606.467 569.42 607.4C566.887 608.467 564.287 609 561.62 609Z" fill="black"/>
    </g>
    <defs>
    <clipPath id="clip0_303_43">
    <rect width="1080" height="1080" fill="white"/>
    </clipPath>
    </defs>
    </svg>
    